<svg data-v-fde0c5aa="" xmlns="http://www.w3.org/2000/svg" viewBox="0 0 300 300" class="font"><!----><defs data-v-fde0c5aa=""><!----></defs><rect data-v-fde0c5aa="" fill="#E1F4FC" x="0" y="0" width="300px" height="300px" class="logo-background-square"></rect><defs data-v-fde0c5aa=""><linearGradient data-v-fde0c5aa="" gradientTransform="rotate(25)" id="b7fb9726-816c-4fce-b983-834b43644282" x1="0%" y1="0%" x2="100%" y2="0%"><stop data-v-fde0c5aa="" offset="0%" stop-color="#0D7CE9" stop-opacity="1"></stop><stop data-v-fde0c5aa="" offset="100%" stop-color="#15CFF1" stop-opacity="1"></stop></linearGradient></defs><g data-v-fde0c5aa="" id="fc4845f4-5b5f-4917-9e7c-c7c06d1f2ba9" fill="url(#b7fb9726-816c-4fce-b983-834b43644282)" transform="matrix(3.1091010932482126,0,0,3.1091010932482126,39.34708874447352,121.33408857256686)"><path d="M7.67 4.31L0.21 4.31L0.21 5.67L3.18 5.67L3.18 14L4.70 14L4.70 5.67L7.67 5.67ZM12.77 7.11L12.77 8.11C12.17 7.41 11.28 6.99 10.26 6.99C8.32 6.99 6.89 8.48 6.89 10.56C6.89 12.63 8.32 14.13 10.26 14.13C11.28 14.13 12.17 13.71 12.77 13.01L12.77 14L14.20 14L14.20 7.11ZM10.56 12.88C9.28 12.88 8.36 11.91 8.36 10.56C8.36 9.21 9.28 8.23 10.56 8.23C11.84 8.23 12.77 9.21 12.77 10.56C12.77 11.91 11.84 12.88 10.56 12.88ZM17.58 5.25C17.58 4.75 17.21 4.41 16.67 4.41C16.13 4.41 15.76 4.75 15.76 5.25C15.76 5.74 16.13 6.09 16.67 6.09C17.21 6.09 17.58 5.74 17.58 5.25ZM15.96 7.11L15.96 14L17.39 14L17.39 7.11ZM19.24 4.31L19.24 14L20.66 14L20.66 4.31ZM31.23 7.11L29.57 12.82L27.87 7.11L26.56 7.11L24.86 12.82L23.20 7.11L21.71 7.11L23.84 14L25.66 14L27.22 9.11L28.77 14L30.59 14L32.72 7.11ZM35.39 5.25C35.39 4.75 35.01 4.41 34.48 4.41C33.94 4.41 33.57 4.75 33.57 5.25C33.57 5.74 33.94 6.09 34.48 6.09C35.01 6.09 35.39 5.74 35.39 5.25ZM33.77 7.11L33.77 14L35.20 14L35.20 7.11ZM40.54 6.99C39.59 6.99 38.82 7.41 38.37 8.15L38.37 7.11L36.95 7.11L36.95 14L38.37 14L38.37 9.97C38.37 8.86 39.06 8.13 40.12 8.13C41.16 8.13 41.83 8.86 41.83 9.97L41.83 14L43.27 14L43.27 9.77C43.27 8.11 42.13 6.99 40.54 6.99ZM50.43 4.31L50.43 8.11C49.83 7.41 48.94 6.99 47.92 6.99C45.98 6.99 44.55 8.48 44.55 10.56C44.55 12.63 45.98 14.13 47.92 14.13C48.94 14.13 49.83 13.71 50.43 13.01L50.43 14L51.86 14L51.86 4.31ZM48.22 12.88C46.94 12.88 46.02 11.91 46.02 10.56C46.02 9.21 46.94 8.23 48.22 8.23C49.50 8.23 50.43 9.21 50.43 10.56C50.43 11.91 49.50 12.88 48.22 12.88ZM55.24 5.25C55.24 4.75 54.87 4.41 54.33 4.41C53.79 4.41 53.42 4.75 53.42 5.25C53.42 5.74 53.79 6.09 54.33 6.09C54.87 6.09 55.24 5.74 55.24 5.25ZM53.62 7.11L53.62 14L55.05 14L55.05 7.11ZM58.28 12.80L62.73 8.19L62.73 7.11L56.46 7.11L56.46 8.32L60.89 8.32L56.42 12.92L56.42 14L62.76 14L62.76 12.80ZM70.97 10.57C70.95 8.48 69.43 6.99 67.30 6.99C65.17 6.99 63.62 8.48 63.62 10.56C63.62 12.63 65.17 14.13 67.30 14.13C68.99 14.13 70.46 13.03 70.85 11.51L69.40 11.51C69.13 12.33 68.29 12.95 67.31 12.95C66.12 12.95 65.21 12.15 65.03 11.00L70.92 11.00C70.95 10.86 70.97 10.71 70.97 10.57ZM67.31 8.16C68.45 8.16 69.36 8.88 69.59 9.90L65.07 9.90C65.32 8.86 66.19 8.16 67.31 8.16Z"></path></g><!----><!----></svg>