<?xml version="1.0" encoding="UTF-8" standalone="no"?>
<svg
   xmlns:dc="http://purl.org/dc/elements/1.1/"
   xmlns:cc="http://creativecommons.org/ns#"
   xmlns:rdf="http://www.w3.org/1999/02/22-rdf-syntax-ns#"
   xmlns:svg="http://www.w3.org/2000/svg"
   xmlns="http://www.w3.org/2000/svg"
   xmlns:xlink="http://www.w3.org/1999/xlink"
   xmlns:sodipodi="http://sodipodi.sourceforge.net/DTD/sodipodi-0.dtd"
   xmlns:inkscape="http://www.inkscape.org/namespaces/inkscape"
   data-v-423bf9ae=""
   viewBox="0 0 151.00978 89.999992"
   class="iconAbove"
   version="1.1"
   id="svg19"
   sodipodi:docname="isolated-logo.svg"
   width="151.00978"
   height="89.999992"
   inkscape:version="1.0.2 (e86c870879, 2021-01-15)">
  <metadata
     id="metadata23">
    <rdf:RDF>
      <cc:Work
         rdf:about="">
        <dc:format>image/svg+xml</dc:format>
        <dc:type
           rdf:resource="http://purl.org/dc/dcmitype/StillImage" />
        <dc:title></dc:title>
      </cc:Work>
    </rdf:RDF>
  </metadata>
  <sodipodi:namedview
     pagecolor="#ffffff"
     bordercolor="#666666"
     borderopacity="1"
     objecttolerance="10"
     gridtolerance="10"
     guidetolerance="10"
     inkscape:pageopacity="0"
     inkscape:pageshadow="2"
     inkscape:window-width="1920"
     inkscape:window-height="1080"
     id="namedview21"
     showgrid="false"
     fit-margin-top="0"
     fit-margin-left="0"
     fit-margin-right="0"
     fit-margin-bottom="0"
     inkscape:zoom="1.7601798"
     inkscape:cx="73.681282"
     inkscape:cy="76.534845"
     inkscape:window-x="1920"
     inkscape:window-y="0"
     inkscape:window-maximized="0"
     inkscape:current-layer="svg19" />
  <!---->
  <!---->
  <!---->
  <g
     data-v-423bf9ae=""
     id="27439f3c-96f2-4bfc-bc63-3f7f990f3ceb"
     fill="#08374e"
     transform="matrix(6.1099798,0,0,6.1099798,-141.02381,40.769526)" />
  <defs
     data-v-423bf9ae=""
     id="defs10">
    <linearGradient
       data-v-423bf9ae=""
       gradientTransform="rotate(25)"
       id="13a05343-ce16-4f1d-9d36-d4555b7458ca"
       x1="0"
       y1="0"
       x2="1"
       y2="0">
      <stop
         data-v-423bf9ae=""
         offset="0%"
         style="stop-color: rgb(13, 124, 233); stop-opacity: 1;"
         id="stop5" />
      <stop
         data-v-423bf9ae=""
         offset="100%"
         style="stop-color: rgb(21, 207, 241); stop-opacity: 1;"
         id="stop7" />
    </linearGradient>
    <linearGradient
       inkscape:collect="always"
       xlink:href="#13a05343-ce16-4f1d-9d36-d4555b7458ca"
       id="linearGradient859"
       gradientTransform="scale(1.950622,0.51265698)"
       x1="0.00044240087"
       y1="104.39339"
       x2="51.266689"
       y2="104.39339"
       gradientUnits="userSpaceOnUse" />
    <linearGradient
       inkscape:collect="always"
       xlink:href="#13a05343-ce16-4f1d-9d36-d4555b7458ca"
       id="linearGradient861"
       gradientTransform="scale(1.9506314,0.51265451)"
       x1="-5.3228312e-05"
       y1="71.910027"
       x2="51.266441"
       y2="71.910027"
       gradientUnits="userSpaceOnUse" />
    <linearGradient
       inkscape:collect="always"
       xlink:href="#13a05343-ce16-4f1d-9d36-d4555b7458ca"
       id="linearGradient863"
       gradientTransform="scale(1.950622,0.51265698)"
       x1="0.00044240392"
       y1="39.402565"
       x2="51.266689"
       y2="39.402565"
       gradientUnits="userSpaceOnUse" />
    <linearGradient
       inkscape:collect="always"
       xlink:href="#13a05343-ce16-4f1d-9d36-d4555b7458ca"
       id="linearGradient865"
       gradientTransform="scale(1.2953326,0.77200249)"
       x1="-8.0156104e-05"
       y1="26.165718"
       x2="77.201744"
       y2="26.165718"
       gradientUnits="userSpaceOnUse" />
  </defs>
  <g
     data-v-423bf9ae=""
     id="6594affa-5030-445b-a01b-e78a68e3d941"
     transform="matrix(1.510067,0,0,1.510067,1.5678847e-4,-30.503353)"
     stroke="none"
     fill="url(#13a05343-ce16-4f1d-9d36-d4555b7458ca)"
     style="fill:url(#linearGradient865)">
    <path
       d="M 73.959,79.8 C 60.352,79.8 49.003,68.612 48.527,68.136 48.425,68.032 37.903,57.687 26.042,57.687 14.14,57.687 3.664,68.031 3.556,68.136 A 2.0831371,2.0831371 0 0 1 0.612,65.188 c 0.476,-0.476 11.825,-11.67 25.43,-11.67 13.607,0 24.955,11.194 25.432,11.67 0.102,0.104 10.624,10.447 22.486,10.447 11.859,0 22.382,-10.344 22.488,-10.447 a 2.076,2.076 0 0 1 2.942,0.006 2.074,2.074 0 0 1 0,2.942 C 98.912,68.612 87.563,79.8 73.959,79.8 Z"
       id="path12"
       style="fill:url(#linearGradient859)" />
    <path
       d="M 73.959,63.147 C 60.352,63.147 49.003,51.953 48.527,51.477 48.425,51.375 37.903,41.032 26.042,41.032 14.14,41.032 3.664,51.375 3.556,51.477 a 2.08,2.08 0 0 1 -2.944,0 2.076,2.076 0 0 1 0,-2.944 c 0.476,-0.476 11.825,-11.668 25.43,-11.668 13.607,0 24.955,11.192 25.432,11.668 0.102,0.1 10.624,10.447 22.486,10.447 11.859,0 22.382,-10.348 22.488,-10.447 a 2.08,2.08 0 0 1 2.942,0.002 2.074,2.074 0 0 1 0,2.942 c -0.478,0.476 -11.827,11.67 -25.431,11.67 z"
       id="path14"
       style="fill:url(#linearGradient861)" />
    <path
       d="M 73.959,46.482 C 60.352,46.482 49.003,35.288 48.527,34.812 48.425,34.708 37.903,24.365 26.042,24.365 14.14,24.365 3.664,34.708 3.556,34.812 A 2.0831371,2.0831371 0 0 1 0.612,31.864 C 1.088,31.388 12.437,20.2 26.042,20.2 c 13.607,0 24.955,11.188 25.432,11.664 0.102,0.104 10.624,10.449 22.486,10.449 11.859,0 22.382,-10.346 22.488,-10.449 a 2.077,2.077 0 0 1 2.942,0.006 2.074,2.074 0 0 1 0,2.942 c -0.478,0.476 -11.827,11.67 -25.431,11.67 z"
       id="path16"
       style="fill:url(#linearGradient863)" />
  </g>
  <!---->
</svg>
