<?xml version="1.0" encoding="UTF-8"?>
<svg id="svg5" class="font" data-v-423bf9ae="" version="1.1" viewBox="0 0 432.34 60" xmlns="http://www.w3.org/2000/svg" xmlns:cc="http://creativecommons.org/ns#" xmlns:dc="http://purl.org/dc/elements/1.1/" xmlns:rdf="http://www.w3.org/1999/02/22-rdf-syntax-ns#">
 <metadata id="metadata11">
  <rdf:RDF>
   <cc:Work rdf:about="">
    <dc:format>image/svg+xml</dc:format>
    <dc:type rdf:resource="http://purl.org/dc/dcmitype/StillImage"/>
    <dc:title/>
   </cc:Work>
  </rdf:RDF>
 </metadata>
 <!---->
 <!---->
 <!---->
 <g id="1aeaca3f-73ba-45e5-a7af-d0a8f65c504c" transform="matrix(6.11 0 0 6.11 -1.2831 -26.334)" data-v-423bf9ae="">
  <path id="path2" d="m7.67 4.31h-7.46v1.36h2.97v8.33h1.52v-8.33h2.97zm5.1 2.8v1c-0.6-0.7-1.49-1.12-2.51-1.12-1.94 0-3.37 1.49-3.37 3.57 0 2.07 1.43 3.57 3.37 3.57 1.02 0 1.91-0.42 2.51-1.12v0.99h1.43v-6.89zm-2.21 5.77c-1.28 0-2.2-0.97-2.2-2.32s0.92-2.33 2.2-2.33 2.21 0.98 2.21 2.33-0.93 2.32-2.21 2.32zm7.02-7.63c0-0.5-0.37-0.84-0.91-0.84s-0.91 0.34-0.91 0.84c0 0.49 0.37 0.84 0.91 0.84s0.91-0.35 0.91-0.84zm-1.62 1.86v6.89h1.43v-6.89zm3.28-2.8v9.69h1.42v-9.69zm11.99 2.8-1.66 5.71-1.7-5.71h-1.31l-1.7 5.71-1.66-5.71h-1.49l2.13 6.89h1.82l1.56-4.89 1.55 4.89h1.82l2.13-6.89zm4.16-1.86c0-0.5-0.38-0.84-0.91-0.84-0.54 0-0.91 0.34-0.91 0.84 0 0.49 0.37 0.84 0.91 0.84 0.53 0 0.91-0.35 0.91-0.84zm-1.62 1.86v6.89h1.43v-6.89zm6.77-0.12c-0.95 0-1.72 0.42-2.17 1.16v-1.04h-1.42v6.89h1.42v-4.03c0-1.11 0.69-1.84 1.75-1.84 1.04 0 1.71 0.73 1.71 1.84v4.03h1.44v-4.23c0-1.66-1.14-2.78-2.73-2.78zm9.89-2.68v3.8c-0.6-0.7-1.49-1.12-2.51-1.12-1.94 0-3.37 1.49-3.37 3.57 0 2.07 1.43 3.57 3.37 3.57 1.02 0 1.91-0.42 2.51-1.12v0.99h1.43v-9.69zm-2.21 8.57c-1.28 0-2.2-0.97-2.2-2.32s0.92-2.33 2.2-2.33 2.21 0.98 2.21 2.33-0.93 2.32-2.21 2.32zm7.02-7.63c0-0.5-0.37-0.84-0.91-0.84s-0.91 0.34-0.91 0.84c0 0.49 0.37 0.84 0.91 0.84s0.91-0.35 0.91-0.84zm-1.62 1.86v6.89h1.43v-6.89zm4.66 5.69 4.45-4.61v-1.08h-6.27v1.21h4.43l-4.47 4.6v1.08h6.34v-1.2zm12.69-2.23c-0.02-2.09-1.54-3.58-3.67-3.58s-3.68 1.49-3.68 3.57c0 2.07 1.55 3.57 3.68 3.57 1.69 0 3.16-1.1 3.55-2.62h-1.45c-0.27 0.82-1.11 1.44-2.09 1.44-1.19 0-2.1-0.8-2.28-1.95h5.89c0.03-0.14 0.05-0.29 0.05-0.43zm-3.66-2.41c1.14 0 2.05 0.72 2.28 1.74h-4.52c0.25-1.04 1.12-1.74 2.24-1.74z" fill="#08374e"/>
 </g>
 <!---->
 <!---->
</svg>
